<?xml version="1.0"?>
<svg width="384" height="512" xmlns="http://www.w3.org/2000/svg" xmlns:svg="http://www.w3.org/2000/svg">
 <!--! Font Awesome Pro 6.4.2 by @fontawesome - https://fontawesome.com License - https://fontawesome.com/license (Commercial License) Copyright 2023 Fonticons, Inc. -->
 <g class="layer">
  <title>Layer 1</title>
  <path d="m2,257l28.5,-228c2,-16 15.6,-28 31.8,-28l168.6,0c15,0 27.1,12.1 27.1,27.1c0,3.2 -0.6,6.5 -1.7,9.5l-46.3,123.4l139.3,0c20.2,0 36.7,16.4 36.7,36.7c0,7.4 -2.2,14.6 -6.4,20.7l-192.2,281c-5.9,8.6 -15.6,13.7 -25.9,13.7l-2.9,0c-15.7,0 -28.5,-12.8 -28.5,-28.5c0,-2.3 0.3,-4.6 0.9,-6.9l47,-188.7l-144,0c-17.7,0 -32,-14.3 -32,-32z" fill="#a01111" id="svg_1" stroke="#000000" stroke-width="12"/>
 </g>
</svg>